<svg xml:space="preserve" viewBox="0 0 100 100" y="0" x="0" xmlns="http://www.w3.org/2000/svg" id="圖層_1" version="1.1" preserveAspectRatio="xMidYMid" width="200" height="200" xmlns:xlink="http://www.w3.org/1999/xlink" style="margin-top:0px;margin-right:0px;margin-bottom:0px;margin-left:0px;display:block;shape-rendering:auto;background-position-x:0%;background-position-y:0%;background-size:auto;background-origin:padding-box;background-clip:border-box;background:scroll rgba(0, 0, 0, 0) none  repeat;width:200px;height:200px;;animation:none"><g class="ldl-scale" style="transform-origin:50px 50px;transform:matrix(0.8, 0, 0, 0.8, 0, 0);;animation:none"><g class="ldl-ani"><g class="ldl-layer"><g class="ldl-ani" style="transform-box:view-box;transform-origin:50px 50px;transform:matrix(0.999566, 0.0294423, -0.0294423, 0.999566, 0, 0);animation-duration:1s;animation-timing-function:linear;animation-delay:-0.6s;animation-iteration-count:infinite;animation-direction:normal;animation-fill-mode:forwards;animation-play-state:paused;animation-name:animate;animation-timeline:auto;animation-range-start:normal;animation-range-end:normal;;animation:none"><path stroke-miterlimit="10" stroke-width="3.5" stroke="#333" fill="#66503a" d="M23.088 88.319l-1.888-1.09a5.077 5.077 0 0 1-1.859-6.936l38.54-66.753a5.077 5.077 0 0 1 6.936-1.859l1.888 1.09a5.077 5.077 0 0 1 1.859 6.936L30.024 86.46a5.077 5.077 0 0 1-6.936 1.859z" style="stroke-width:3.5px;fill:rgb(102, 80, 58);stroke:rgb(51, 51, 51);;animation:none"></path></g></g>
<g class="ldl-layer"><g><path stroke-miterlimit="10" stroke-width="3.5" stroke="#333" fill="#666" d="M65.392 55.865L28.154 34.366a6.174 6.174 0 0 1-2.26-8.433l6.687-11.583a6.174 6.174 0 0 1 8.433-2.26l37.238 21.5a6.174 6.174 0 0 1 2.26 8.433l-6.687 11.583a6.174 6.174 0 0 1-8.433 2.259z" style="stroke-width:3.5px;fill:rgb(102, 102, 102);stroke:rgb(51, 51, 51);;animation:none"></path></g></g>
<g class="ldl-layer"><g><path stroke-miterlimit="10" stroke-width="3.5" stroke="#000" opacity=".2" d="M22.144 87.774l.944.545a5.077 5.077 0 0 0 6.936-1.859l22.09-38.261 13.278 7.666a6.173 6.173 0 0 0 8.433-2.26l6.687-11.583a6.173 6.173 0 0 0-2.26-8.433l-13.278-7.666 3.59-6.217a5.077 5.077 0 0 0-1.859-6.936l-.944-.545" style="stroke-width:3.5px;stroke:rgb(0, 0, 0);opacity:0.2;;animation:none"></path></g></g>
<g class="ldl-layer"><g><path d="M38.179 18.313l-2.637 4.567" stroke-miterlimit="10" stroke-linecap="round" stroke-width="3.5" stroke="#fff" fill="none" style="stroke-width:3.5px;stroke:rgb(255, 255, 255);fill:none;;animation:none"></path></g></g>
<g class="ldl-layer"><g><path d="M32.545 28.071l-.271.47" stroke-miterlimit="10" stroke-linecap="round" stroke-width="3.5" stroke="#fff" fill="none" style="stroke-width:3.5px;stroke:rgb(255, 255, 255);fill:none;;animation:none"></path></g></g>
</g></g>
</svg>